<?xml version="1.0" standalone="no"?><!DOCTYPE svg PUBLIC "-//W3C//DTD SVG 1.1//EN" "http://www.w3.org/Graphics/SVG/1.1/DTD/svg11.dtd"><svg t="1582640385955" class="icon" viewBox="0 0 1024 1024" version="1.1" xmlns="http://www.w3.org/2000/svg" p-id="11797" xmlns:xlink="http://www.w3.org/1999/xlink" width="200" height="200"><defs><style type="text/css"></style></defs><path d="M759.808 66.56H264.704C155.136 66.56 66.56 155.136 66.56 264.704v495.104c0 109.568 88.576 198.144 198.144 198.144h495.104c109.568 0 198.144-88.576 198.144-198.144V264.704c0-109.568-88.576-198.144-198.144-198.144zM655.36 181.248c0 72.704-58.88 131.072-131.072 131.072 0-72.192 58.88-131.072 131.072-131.072z m-43.52 612.864c-43.008 0-46.592-24.064-87.552-24.064-40.96 0-44.544 24.064-87.552 24.064-84.48 0-175.104-175.616-175.104-328.192 0-84.992 68.608-153.6 153.088-153.6 43.008 0 72.704 35.84 109.568 35.328 36.864-0.512 66.56-35.328 109.568-35.328 51.712 0 97.792 25.6 125.44 65.024-35.84 23.552-59.392 64-59.392 110.08 0 49.152 26.624 91.648 66.56 114.176-32.768 104.96-95.232 192.512-154.624 192.512z" p-id="11798"></path></svg>