<?xml version="1.0" standalone="no"?><!DOCTYPE svg PUBLIC "-//W3C//DTD SVG 1.1//EN" "http://www.w3.org/Graphics/SVG/1.1/DTD/svg11.dtd"><svg t="1582639216962" class="icon" viewBox="0 0 1024 1024" version="1.1" xmlns="http://www.w3.org/2000/svg" p-id="8325" xmlns:xlink="http://www.w3.org/1999/xlink" width="200" height="200"><defs><style type="text/css"></style></defs><path d="M511.858139 0.60441c-282.494127 0-511.500488 229.006361-511.500488 511.500488s229.006361 511.500488 511.500488 511.500487 511.500488-229.006361 511.500487-511.500487a511.500488 511.500488 0 0 0-511.500487-511.500488z m256.466544 459.737038a151.813744 151.813744 0 0 1-87.262783 65.675863 83.16978 83.16978 0 0 1-24.449123 4.092004c-16.045331 0-29.053627-13.007298-29.053628-29.052628s13.007298-29.053627 29.053628-29.053627c2.210841 0.05095 4.407696-0.367641 6.444706-1.227801a91.353787 91.353787 0 0 0 55.855454-40.920039 75.190572 75.190572 0 0 0 11.049209-39.589339c0-45.933143-42.45454-83.78418-94.21799-83.78418a105.1643 105.1643 0 0 0-51.150049 13.400914 81.840078 81.840078 0 0 0-43.68334 70.383266V634.250615c-0.516496 50.330849-28.33433 96.405854-72.633069 120.304515a159.486252 159.486252 0 0 1-79.692176 20.460019c-84.294681 0-153.450146-63.42606-153.450146-141.890435a136.05913 136.05913 0 0 1 19.744718-69.768866 151.813744 151.813744 0 0 1 87.261783-65.675864 85.830181 85.830181 0 0 1 24.450123-4.092004c16.045331 0 29.052628 13.007298 29.052628 29.052629 0 16.04633-13.007298 29.053627-29.052628 29.053627a15.651715 15.651715 0 0 0-6.444706 1.227801 95.855391 95.855391 0 0 0-55.855454 40.920039 75.190572 75.190572 0 0 0-11.04921 39.589339c0 45.933143 42.45454 83.78418 94.83239 83.784179a105.1643 105.1643 0 0 0 51.150049-13.400913 81.840078 81.840078 0 0 0 43.579442-70.383266V390.572581c0.566447-50.37081 28.413253-96.468792 72.735969-120.407414a151.097444 151.097444 0 0 1 79.077776-21.483021c84.294681 0 153.450146 63.42606 153.450146 141.890435a136.05913 136.05913 0 0 1-19.743719 69.768867z" fill="#24AF41" p-id="8326"></path></svg>