<?xml version="1.0" standalone="no"?><!DOCTYPE svg PUBLIC "-//W3C//DTD SVG 1.1//EN" "http://www.w3.org/Graphics/SVG/1.1/DTD/svg11.dtd"><svg t="1582640567095" class="icon" viewBox="0 0 1024 1024" version="1.1" xmlns="http://www.w3.org/2000/svg" p-id="12543" xmlns:xlink="http://www.w3.org/1999/xlink" width="200" height="200"><defs><style type="text/css"></style></defs><path d="M512 1024A512 512 0 1 1 1024 512 513.6384 513.6384 0 0 1 512 1024z m-399.7696-406.3232a25.3952 25.3952 0 0 0-25.8048 25.8048 26.2144 26.2144 0 0 0 25.8048 28.672 25.3952 25.3952 0 0 0 25.3952-25.8048 26.2144 26.2144 0 0 0-25.3952-28.672z m335.872-265.4208H404.6848v245.76l-160.1536-245.76H192.1024v319.8976h40.96v-259.2768l166.2976 259.2768h47.9232V351.8464z m233.472 278.528h-127.7952v-96.256h118.3744v-40.96h-118.3744V396.4928h128.2048V351.8464H512v319.8976h169.5744v-40.96z m31.9488-278.528v40.96h89.7024v278.528h40.96V393.216h89.7024v-40.96h-220.3648z m0 0" p-id="12544"></path></svg>