<?xml version="1.0" standalone="no"?><!DOCTYPE svg PUBLIC "-//W3C//DTD SVG 1.1//EN" "http://www.w3.org/Graphics/SVG/1.1/DTD/svg11.dtd"><svg t="1582639572885" class="icon" viewBox="0 0 1024 1024" version="1.1" xmlns="http://www.w3.org/2000/svg" p-id="9812" xmlns:xlink="http://www.w3.org/1999/xlink" width="200" height="200"><defs><style type="text/css"></style></defs><path d="M679.268292 935.454935 343.615864 935.454935c-48.330514 0-93.369688-26.005597-117.536952-67.861805l-167.826214-290.677475c-24.175291-41.860222-24.175291-93.867403 0-135.72361l167.826214-290.681489c24.16325-41.860222 69.206438-67.857791 117.536952-67.857791l335.652428 0c48.330514 0 93.369688 25.99757 117.536952 67.857791l167.826214 290.681489c24.175291 41.860222 24.175291 93.867403 0 135.72361l-167.826214 290.677475C772.637979 909.449337 727.598805 935.454935 679.268292 935.454935zM343.615864 116.886711c-36.136502 0-69.808512 19.442987-87.886797 50.738811L87.902853 458.307011c-18.066244 31.299838-18.066244 70.185812 0 101.48565l167.826214 290.677475c18.078285 31.299838 51.750296 50.742825 87.886797 50.742825l335.652428 0c36.136502 0 69.808512-19.442987 87.886797-50.742825l167.826214-290.677475c18.066244-31.299838 18.066244-70.185812 0-101.48565l-167.826214-290.681489c-18.078285-31.29181-51.750296-50.738811-87.886797-50.738811L343.615864 116.886711z" fill="#ff0000" p-id="9813"></path><path d="M361.658025 443.608369 318.469226 443.608369l-17.73711 107.711098L341.095179 551.319468c0 0 49.105183 1.517227 51.417148-69.784429C394.824293 440.577929 361.658025 443.608369 361.658025 443.608369L361.658025 443.608369M730.328209 443.608369l-43.188799 0-17.73711 107.711098 40.363063 0c0 0 49.105183 1.517227 51.417148-69.784429C763.494477 440.577929 730.328209 443.608369 730.328209 443.608369L730.328209 443.608369M339.036085 591.373466l-43.702569-0.401383-12.342524 67.761459L236.205803 658.733543l42.161259-254.870107c0 0 59.898369 0.911139 99.233892 0 39.331509-0.911139 78.016792 31.889871 59.902382 106.193871C415.904922 598.654552 339.036085 591.373466 339.036085 591.373466L339.036085 591.373466M549.336636 591.373466c0 0 11.230693-59.228059 16.151647-100.349736 2.02297-16.93033 10.845366-45.593082-12.531174-45.657304-19.579457-0.060207-48.864353-0.24083-48.864353-0.24083l-24.681034 146.251883-46.279447 0 43.192813-256.090311 47.387264 0-11.90903 68.552184 48.848298 0c0 0 64.787212-6.04884 57.076647 57.064605-7.714579 63.109432-22.112183 130.473522-22.112183 130.473522L549.336636 591.373466 549.336636 591.373466M806.17352 510.053293c-21.598413 88.597245-98.463237 81.31616-98.463237 81.31616l-43.706583-0.401383-12.342524 67.761459-46.789203 0 42.161259-254.870107c0 0 59.898369 0.911139 99.233892 0C785.602647 402.948283 824.283916 435.749292 806.17352 510.053293L806.17352 510.053293M806.17352 510.053293 806.17352 510.053293z" fill="#ff0000" p-id="9814"></path></svg>